<?xml version="1.0" encoding="UTF-8"?>
<svg width="120" height="120" viewBox="0 0 120 120" fill="none" xmlns="http://www.w3.org/2000/svg">
  <!-- Background Circle with Gradient -->
  <circle cx="60" cy="60" r="56" fill="url(#paint0_linear)"/>
  
  <!-- Inner Shape - Stylized Chat Bubble -->
  <path d="M35 40C35 37.2386 37.2386 35 40 35H80C82.7614 35 85 37.2386 85 40V65C85 67.7614 82.7614 70 80 70H60L45 85V70H40C37.2386 70 35 67.7614 35 65V40Z" fill="white" fill-opacity="0.9"/>
  
  <!-- Decorative Elements -->
  <circle cx="50" cy="52.5" r="5" fill="#1E40AF"/>
  <circle cx="70" cy="52.5" r="5" fill="#3B82F6"/>
  <path d="M45 60H75" stroke="#1E40AF" stroke-width="3" stroke-linecap="round"/>
  
  <!-- "I" letter for Internal Chat -->
  <path d="M59 24V16H61V24H59Z" fill="white"/>
  <path d="M55 14H65V16H55V14Z" fill="white"/>
  <path d="M55 24H65V26H55V24Z" fill="white"/>
  
  <!-- Wave Effect at Bottom -->
  <path d="M25 85C32.5 82 40 86 50 83C60 80 70 85 80 83C90 81 95 83 100 82" stroke="white" stroke-opacity="0.5" stroke-width="2" stroke-linecap="round"/>
  <path d="M20 92C27.5 89 35 93 45 90C55 87 65 92 75 90C85 88 92 90 97 89" stroke="white" stroke-opacity="0.3" stroke-width="2" stroke-linecap="round"/>
  
  <!-- Gradient Definition -->
  <defs>
    <linearGradient id="paint0_linear" x1="60" y1="4" x2="60" y2="116" gradientUnits="userSpaceOnUse">
      <stop stop-color="#1E40AF"/>
      <stop offset="1" stop-color="#3B82F6"/>
    </linearGradient>
  </defs>
</svg> 